<svg width="39" height="44" viewBox="0 0 39 44" fill="none" xmlns="http://www.w3.org/2000/svg">
<path d="M39 30.8018V13.1982C38.9992 12.4264 38.7986 11.6685 38.4183 11.0003C38.038 10.3321 37.4914 9.77729 36.8333 9.39141L21.6667 0.589609C21.0079 0.203349 20.2607 0 19.5 0C18.7393 0 17.9921 0.203349 17.3333 0.589609L2.16667 9.39141C1.50857 9.77729 0.961957 10.3321 0.581667 11.0003C0.201376 11.6685 0.000779441 12.4264 0 13.1982V30.8018C0.000779441 31.5736 0.201376 32.3315 0.581667 32.9997C0.961957 33.6679 1.50857 34.2227 2.16667 34.6086L17.3333 43.4104C17.9921 43.7966 18.7393 44 19.5 44C20.2607 44 21.0079 43.7966 21.6667 43.4104L36.8333 34.6086C37.4914 34.2227 38.038 33.6679 38.4183 32.9997C38.7986 32.3315 38.9992 31.5736 39 30.8018Z" fill="url(#paint0_linear_2_5)"/>
<defs>
<linearGradient id="paint0_linear_2_5" x1="19.5" y1="0" x2="19.5" y2="44" gradientUnits="userSpaceOnUse">
<stop stop-color="#4278FF"/>
<stop offset="1" stop-color="#002160"/>
</linearGradient>
</defs>
</svg>
